<svg width="600" height="600" viewBox="0 0 600 600" fill="none" xmlns="http://www.w3.org/2000/svg">
<g clip-path="url(#clip0_184_164)">
<path d="M0 0H600V600H0V0Z" fill="white"/>
<path d="M110.534 433.009C105.076 431.45 104.998 428.411 110.222 417.656C113.098 411.78 115.931 405.883 118.72 399.966C121.215 394.823 125.348 386.095 127.998 380.64C134.172 367.879 140.306 355.099 146.399 342.299C148.66 337.623 152.714 329.206 155.365 323.595C158.016 318.063 161.524 310.659 163.162 307.23C164.8 303.801 167.996 296.944 170.413 292.034C172.752 287.124 178.287 275.513 182.654 266.317C201.366 227.041 206.901 215.507 211.735 205.532C214.464 199.765 219.61 189.167 223.041 181.92C230.058 167.425 230.526 166.879 237.543 167.581C242.065 167.97 243.468 169.373 247.211 177.01C273.798 231.015 284.5 252.748 284.5 254.463C284.5 255.242 282.611 251 283 251C283.312 251 285.181 255.329 286.116 257.122C288.222 261.174 303.971 293.671 308.571 303.334C310.364 307.23 315.432 317.517 319.72 326.323C324.009 335.129 332.585 352.819 338.822 365.677C345.099 378.633 351.363 391.595 357.613 404.564C361.745 413.059 365.643 421.241 366.345 422.878C367.748 426.307 367.203 429.969 365.019 431.995C363.46 433.398 361.823 433.476 341.395 433.476C319.486 433.476 319.486 433.476 314.575 431.216C305.998 427.242 304.283 424.67 287.52 390.615C276.128 367.617 264.771 344.601 253.448 321.569C242.922 300.295 233.878 282.682 233.41 282.371C231.929 281.436 230.37 283.228 227.719 288.839C226.393 291.644 221.092 302.555 215.946 313.075C211.955 321.238 208.005 329.421 204.095 337.623C202.691 340.662 199.027 348.377 195.908 354.767C189.367 368.254 182.87 381.762 176.416 395.291C164.487 420.462 162.304 424.358 158.484 427.943C152.792 433.242 149.751 433.866 129.714 433.788C120.436 433.788 111.859 433.398 110.534 433.009ZM395.788 428.103C392.513 426.467 392.123 425.843 385.34 411.894C374.191 389.061 373.801 387.736 376.998 384.852C378.479 383.528 380.35 383.294 396.724 382.982C418.087 382.437 420.738 381.735 428.378 374.644C444.674 359.603 441.321 331.705 421.985 320.405C414.188 315.885 408.886 315.183 381.442 315.183C354.621 315.183 352.594 314.95 350.021 311.053C349.319 309.962 345.811 302.715 342.146 295C334.973 279.414 334.272 276.53 337.546 274.037C339.417 272.556 341.055 272.478 366.628 272.166C393.683 271.855 393.683 271.855 399.53 269.127C410.212 264.062 415.904 255.489 415.904 244.423C415.904 230.708 407.951 220.421 395.086 217.304C391.5 216.525 380.896 216.291 345.031 216.213C299.498 216.213 299.498 216.213 296.847 213.252C294.508 210.758 289.596 201.173 278.603 177.404C275.718 171.17 275.64 167.741 278.369 165.637C280.396 164 280.942 164 339.807 164C395.008 164 399.764 164.078 408.107 165.559C426.663 168.676 439.995 174.832 452.158 185.976C461.514 194.471 469.389 207.641 472.898 220.499C476.406 233.669 475.549 250.736 470.715 263.906C468.376 270.218 462.606 279.258 458.474 283.154C456.914 284.635 455.667 286.505 455.667 287.207C455.667 287.986 458.162 290.324 461.748 292.818C485.84 309.728 496.444 335.211 492 365.058C486.854 398.958 459.799 425.064 425.649 428.961C421.829 429.35 414.266 429.74 408.886 429.74C400.466 429.74 398.673 429.506 395.788 428.103Z" fill="black"/>
</g>
<defs>
<clipPath id="clip0_184_164">
<rect width="600" height="600" fill="white"/>
</clipPath>
</defs>
</svg>
