<svg xmlns="http://www.w3.org/2000/svg" viewBox="0 0 128 128">
  <path d="M96 1a13 13 0 0 0-4 1l-3 1a87 87 0 0 1-2 2 429 429 0 0 1-3 3 19 19 0 0 0-3 3v1h-1a4 4 0 0 0-1 2v1a3 3 0 0 0 0 1l-1 1a61 61 0 0 0-19-2 4 4 0 0 0-1 0h-1a58 58 0 0 0-20 5 2 2 0 0 1-1-1l-1-1a25 25 0 0 0-3-4l-2-2-8-2h-1a4 4 0 0 0-2 1h-1l-5 5c-2 2-3 5-3 8l-1 6h1l-1 1a4 4 0 0 0 0 1l1 1v2a131 131 0 0 0 1 6 10 10 0 0 0-2 3 353 353 0 0 1-2 3 49 49 0 0 0-6 18 6 6 0 0 0-1 3 29 29 0 0 0 0 5v7a56 56 0 0 0 3 9v1a54 54 0 0 0 3 8l2 3a46 46 0 0 0 3 4l1 1 2 2 1 2a73 73 0 0 1 3 3l3 2a55 55 0 0 0 5 3 77 77 0 0 0 4 3l3 1 6 2 3 1a8 8 0 0 1 2 0 335 335 0 0 0 11 2 30 30 0 0 0 4 0 52 52 0 0 0 8 0l3-1a100 100 0 0 1 3-1 28 28 0 0 1 4-1 183 183 0 0 1 5-2l2-1h1l4-2 1-1a5 5 0 0 0 1 0 29 29 0 0 0 4-3 65 65 0 0 0 3-2 40 40 0 0 0 5-5 8 8 0 0 1 2-2 31 31 0 0 0 2-2 54 54 0 0 0 8-14l1-1v-1a4 4 0 0 1 0-1v-1a3 3 0 0 1 1-1v-2a2 2 0 0 0 1-2 4 4 0 0 0 0-2 54 54 0 0 0 1-8 14 14 0 0 1 0-3 4 4 0 0 1 0-2v-1a4 4 0 0 1 0-2 6 6 0 0 0 3-1 21 21 0 0 0 2-1 3 3 0 0 0 1-2l1-1v-1h1a9 9 0 0 0 1-5 1 1 0 0 0 0-1 10 10 0 0 0-1-3 1 1 0 0 0-1-1 1 1 7 0 0-1-1 16 16 0 0 1-2-1l-2-1h-3a7 7 0 0 0-2 1 25 25 0 0 0-3 1 59 59 0 0 0-10-14v-1l1-4c2-3 2-6 3-10l-1-9a4 4 0 0 0-1-1l-5-5a6 6 0 0 0-2-1 13 13 0 0 0-2 0Zm0 2a8 8 0 0 1 1 0 8 8 0 0 1 1 0 8 8 0 0 1 1 1 8 8 0 0 0-1-1 8 8 0 0 0-2 0zm3 1zm-7 0zm-1 1zm0 0zm-2 1zm13 0a1 1 0 0 1 0 1V6zM88 6Zm14 1zM87 7Zm7 1a9 9 0 0 0-1 0h1zm1 0a9 9 0 0 1 1 0 8 8 0 0 1 3 1 8 8 0 0 0-3-1 9 9 0 0 0-1 0Zm-4 0a8 8 0 0 0-2 2l-2 1a14 14 0 0 0-3 3 14 14 0 0 0-1 3l-1 2 1-2 1-3a14 14 0 0 1 3-3l2-1a8 8 0 0 1 2-2zm-6 1zm20 0zM94 9l4 1 1 1a22 22 0 0 1 1 4v5a1 1 59 0 1 0 1v1l-1 1v1a1 1 0 0 0 0 1l-1 1a2 2 0 0 0 0 1c0 1 0 1 0 0-5-3-9-6-15-8l2-2c1-3 4-6 7-7l2-1zm6 2zm0 0zm-78 1zm78 0zm-77 1zm83 0zm-84 0zm-1 0zm0 0zm80 0c1 0 0 0 0 0s1 0 0 0zm-76 0zm-5 0zm7 1h1-1zm79 0zm-78 0zm73 0zm5 0zm-88 1zm88 0zm0 0zm-5 0v1-1zm5 0v1a16 16 0 0 0 0-1zm-89 0zm63 0s0 1 0 0c0 1 0 0 0 0zm1 0zm0 1zm-20 0zm1 0zm-2 0zm4 0zm18 0zm-26 0zm-2 0zm48 0zm3 1zm0 0zm1 0zm-90 0zm89 0zm-27 0zm-30 0zm58 0h-1 1zm-4 0zm4 0a3 3 0 0 1 0 2 8 8 0 0 1-1 2l1-2a3 3 0 0 0 0-2zm-27 0zm-1 0a1 1 0 0 1 0 1 1 1 0 0 0 0-1zm1 0zm-18 0zm-3 1zm4 0zm-2 0zm-5 0zm1 0h1-1zm11 0zm-2 0zm-6 0zm10 0zm-15 0h-1 1zm4 0a24 24 0 0 0-2 0 25 25 0 0 0 1 0h1zm20 0h1l1 1a5 5 0 0 0-1-1 22 22 0 0 0-1 0zm-28 0zm0 0zm20 0zm-6 0zm0 0zm-4 0zm7 0zm2 0zm-10 0zm-45 1zm29 0zm0 0zm14 0a52 52 0 0 0-10 1l-4 1a12 12 0 0 0-1 1 12 12 0 0 1 1-1l4-1a52 52 0 0 1 10-1zm17 0zm-61 0zm37 0zm0 0zm31 0zm20 0zm-55 0zm-33 0v1-1zm68 1zm-55 0zm75 0zm3 0zm-60 0zm60 0v1a6 6 0 0 1 0-1zm-76 0zm15 0zm0 0zm-30 1zm73 0zm-63 0h1a2 2 0 0 0 1 0l5 3v1l3 3 2 3a3 3 0 0 1-1 2v-1h-1v2l-1 1h-1v-1h-1a5 5 0 0 1 1 2 9 9 0 0 1-2 2h-1v1l-2 2a2 2 0 0 1-1-1 3 3 0 0 0 0-1h-1a2 2 0 0 0 0 1v1l1 1-2 1a3 3 0 0 0-1-1v1l1 1-2 1a18 18 0 0 1-1-3 4 4 0 0 1-1-1v-1a1 1 0 0 1-1 0v-1a4 4 0 0 1 0-1 4 4 0 0 0 0 1v1h1a4 4 0 0 0 0-1 3 3 0 0 1-1-1 20 20 0 0 0 0-3v-2a3 3 0 0 0 0-1v-2a2 2 0 0 0 0-2 2 2 0 0 1 0-1 18 18 0 0 1 1-3 4 4 0 0 1 2-1 23 23 0 0 1 2-2zm6 0v1a5 5 0 0 0 0-1zm28 0 1 1a7 7 0 0 1 1 2l1 1v1h-1a38 38 0 0 0 0-1 12 12 0 0 1-3-3v-1h1zm-37 0zm21 0zm0 1zm0 0zm-5 0zm52 0zm-49 0zm-11 0zm10 0zm-26 0zm25 0v1-1l-2 1zm49 1h1a34 34 0 0 1 3 1l4 2a253 253 0 0 0-4-2 34 34 0 0 0-2-1 34 34 0 0 0-1 0h-1zm19 0zm-5 0zm-70 0zm0 0zm0 0v1-1zm8 0zm1 0v1l1 1-1-1v-1zm-9 1zm70 0zm-62 0zm63 0zm-83 0zm58 0v1a157 157 0 0 1 1 5v1h-1a7 7 0 0 1 0-3 23 23 0 0 1-1-3l1-1zm24 0zm0 0zm-8 0a17 17 0 0 1 4 3 17 17 0 0 0-4-3zm-45 0 2 2v1l1 1v1a7 7 0 0 1-2-1l-2-3 1-1zm52 0zm-68 0zm-1 1zm8 0a1 1 0 0 0 1 0 1 1 0 0 1-1 0zm-26 0zm87 1zm-67 0zm8 0zm61 0a4 4 0 0 0 1 1 4 4 0 0 1-1-1zm-68 0v1l1 1a3 3 0 0 1 1 1 3 3 0 0 0-1-1 5 5 0 0 0-1-1v-1zm66 1zm-82 0zm82 0zm-1 1zm-31 0v1l1 1v2l1 2a1 1 0 0 1-1-1 9 9 0 0 1-1-1 7 7 0 0 1-1-4h1zm-56 0zm5 0zm1 0v1-1zm0 0v1-1zm60 1-1 1h1v-1zm23 1 2 1-2-1zm2 0zm-67 0a1 1 0 0 1 1 0 1 1 0 0 0-1 0zm64 0zm-42 0 1 1 1 1a1 1 30 0 0 0 1l2 2-1 1a23 23 0 0 1-3-3v-1l-1-1 1-1zm-22 2zm1 0zm0 0zm-19 0zm16 0a1 1 0 0 0 0 1 1 1 0 0 1 0-1zm-16 0zm0 2zm-1 1zm85 0h1l1 4v2h-3v-5l1-1zm-84 1zm61 0zm0 0v1-1zm-43 0zm-17 0zm59 0zm-59 0zm87 0 1 2a185 185 0 0 0 4 5 30 30 0 0 0-1-2 182 182 0 0 1-3-3 37 37 0 0 0-1-2zm-88 0a1 1 0 0 1 0 1 1 1 0 0 0 0-1zm64 1zm-64 0zm60 0zm-60 0zm66 0a8 8 0 0 1 3 1h3l2 1 3 2 3 2a27 27 0 0 1 6 7l1-1v1h-1a8 8 0 0 0 1 2 38 38 0 0 1 3 8v5a27 27 0 0 1-24 27 1 1 0 0 1-1 0h-7a11 11 0 0 0-3-1 28 28 0 0 0-2-1 23 23 0 0 1-7-4c-4-4-7-8-9-14v-2a4 4 0 0 1 0-1v-1l-1-1c-1 0-1 0 0 0 0-1 0 0 0 0h1l-1-2v-1l1-2a19 19 0 0 1 1-4 22 22 0 0 1 2-7l1-2a16 16 0 0 1 4-4l2-2 2-1a9 9 0 0 1 2-1l5-2a10 10 0 0 0 2-1l8-1 3 1a9 9 0 0 0-1-1 8 8 0 0 0-2 0zm-32 0a31 31 0 0 0 3 3v1l1 1h-1a12 12 0 0 1-4-4l1-1zm20 2zm-53 1zm10 0zm40 0h1-2a2 2 0 0 1 1 0zm-1 0a1 1 0 0 0-1 0 1 1 0 0 1 1 0zm-27 1h1l1 1 1 1a169 169 0 0 1 2 2l-3-2a3 3 0 0 1-1-1h-1v-1zm-14 1zm38 0zm1 0h-1 1zm-2 0zm1 1zm0 0zm-52 0a7 7 0 0 1-1 1 2 2 0 0 1 0 2v-2l1-1zm49 1zm50 0zm-88 0zm-9 0zm9 0zm37 0 1 1-1-1zm1 0zm-48 1zm106 0a5 5 0 0 1 5 2l1 1v2l1 2h-1l1 1v1h-1v2l-1 1h1v1h-1l-1 1v1a1 1 0 0 0-1 0l-1 1-1 1h-3l-3-1-1-1c-2-2-3-4-3-7l1-1v-1a1 1 0 0 1 1-1v-1l-1 1v1-1l1-1h1a4 4 0 0 1 1-2l5-2zM10 45zm1 1zm69 1a6 6 0 0 0-1 0c-3 0-6 1-8 3l-1 3v1a3 3 0 0 0 1 1h7v7h1v4h-2a3 3 0 0 0-2 0 3 3 0 0 0-1 0h-1a28 28 0 0 0-3 0l-2-1h-1l-2 1-1 1a2 2 0 0 0 0 1 11 11 0 0 1-1 1 2 2 0 0 0-1 1l1 2v1h1v1a9 9 0 0 0 2 1l1 1 4 1v1a47 47 0 0 0 0 5l1 4 1 1 4 1 1-1 1-1a7 7 0 0 0 1-4 13 13 0 0 0 0-5h-1v-1c1 0 0 0 0 0l2-1h1a3 3 0 0 1 2 0l1-1h1a219 219 0 0 0 4-2 5 5 0 0 0 1 0l1-1 1-1v-1a19 19 0 0 0 3-3 31 31 0 0 1 1-2v-1h-1 1v-2l-1-1-2-1h-1l-4 2a1 1 0 0 1-1 0l-3 2a34 34 0 0 0-3 1h-1l-1 1a2 2 0 0 1 0-2v-2a28 28 0 0 0-1-6l-1-1h3l2-2c1-1 2-1 2-3l-1-2-2-1a11 11 0 0 0-1 0 5 5 0 0 0-1 0zm11 26a5 5 0 0 1-1 0 219 219 0 0 1-4 2l-1 1v1l1-1 2-1a30 30 0 0 0 5-3l-2 1zM10 47Zm102 0zM10 47zm5 0v1a1 1 0 0 0 0-1zm-6 1zm71 1zM9 49zm71 0zm0 0zm0 0zm-70 0zm70 0zm1 0zM9 49v1-1zm71 0zm3 0zm0 0zm0 0zm-1 1zm-6 0zm6 0zM9 50a1 1 0 0 1 0 1H8a2 2 0 0 0 1 0v-1zm0 0zm31 0 2 2v2a2 2 0 0 1 0 2 5 5 0 0 1-1 2h-1l-1-1h-1l-1-4a3 3 0 0 0 1-1v-1a9 9 0 0 1 2-1zm16 1zm1 0zm-1 0zm1 0zm52 0a4 4 0 0 0 0 3 4 4 0 0 1 0-1v-2zm-30 1zm0 0zm0 0zm0 0h-1 1zm0 0zm0 0zm-23 0zm0 0zm19 0zm3 0zm-3 0a1 1 0 0 0 0 1 1 1 0 0 1 0-1zm3 0zm-4 0zm1 1zm0 0zm0 0zm2 0zm-22 0zm20 0zm0 0zm-1 0zM5 54zm72 0zM7 54zm0 1Zm0 0zm47 1zM7 56Zm-1 0v3-3zm101 1a1 1 0 0 1 0 1 1 1 0 0 0 0-1zm-54 0zm55 0zm18 0zm-19 0h1-1zM6 57zm120 0zm-73 1zm55 0zM6 59zm102 0zm-55 0zm0 0zm26 0zm29 0v1a13 13 0 0 1 1 5v2-2a13 13 0 0 0-1-5v-1zM6 59zm104 0 2 2-2-2zm0 1zM6 60zm0 0zm87 1zm1 0zm2 0h-1 1zm-3 0a4 4 0 0 0-1 0 4 4 0 0 0-1 1 4 4 0 0 1 1-1 4 4 0 0 1 1 0zm1 0zm-41 0zm38 0zm3 1zm-42 0zm43 0zm0 0zm-16 0zm15 0zm-15 0zm16 0zm-15 0zm35 0 2 1a28 28 0 0 0-2-1zm-26 0a12 12 0 0 1-1 1l1-1zm7 0zm-4 1zm4 0zm-1 0zm-4 0zm1 0zm0 0zm3 0zm-43 0zm43 0zm-4 1a5 5 0 0 0 0 1 5 5 0 0 1 0-1zm-39 0v1-1zm39 0zm-4 0a1 1 0 0 0-1 0 1 1 0 0 1 1 0zm-8 0zm17 0zm-1 1zm-16 0zm8 0h1-1zm8 0zm-7 0zm-36 0zm36 0zm-5 0zm5 0zm-36 1zm37 0zm5 0zm0 0zm-26 0zm19 0zm-20 0zm11 0zm15 0zm-16 0zm-42 0 4 1h1v1l1 1a27 27 0 0 0 1 1v1a4 4 0 0 1 1 2v3a40 40 0 0 1 0 2 323 323 0 0 0-3 4 1 1 0 0 0-1 0l-1 1h-3v1h-1l-1-1-1 1a3 3 0 0 1-2-1 20 20 0 0 1-1-1 2 2 0 0 1-1 0v-1h-1l-1-2v-1h-1a1 1 0 0 1 1-1v-2a2 2 0 0 1 0-2l1-1c0-2 1-3 3-4v-1l4-1h1zm52 0zm2 0v1-1zm1 0 1 1zm-13 0zm-37 1zm44 0zm9 0zm-16 0zm18 0zm0 0zm-11 0zm10 0zm-2 0zm-22 0zm5 0zm17 0zm-21 0zm16 0a2 2 0 0 0 0 1 2 2 0 0 0-1 0v1h1a2 2 0 0 0 0-1 2 2 0 0 1 0 1h-1v-1a2 2 0 0 1 1-1zm7 0zm-24 0zm1 0zm22 0zm-3 0zm0 0a2 2 0 0 0 0 1 2 2 0 0 1 0-1zm0 0zm1 0a1 1 0 0 1 0 1 1 1 0 0 0 0-1zm2 0zm-20 0a1 1 0 0 0 1 0 1 1 0 0 1-1 0zm19 0zm-23 0zm24 0zm-18 0v1-1zm6 0a7 7 0 0 0 0 1v-1zm-11 0a1 1 0 0 0-1 1 1 1 0 0 1 1-1zm-1 1zm-2 0zm9 0zm13 0zm0 0h-1a1 1 0 0 1 1 0zm-20 0zm9 0h1-1zm-12 0zm7 0zm20 0zm-26 0zm12 0zm12 0zm-8 0zm-6 0a1 1 0 0 1 1 0v1-1a1 1 0 0 0-1 0zm0 0zm2 0a2 2 0 0 0-1 1 2 2 0 0 1 1-1zm-2 0zm14 0zm-23 0zm8 0zm-7 0zm11 0a14 14 0 0 1-1 2 14 14 0 0 0 1-2zm-11 0v1-1zm5 0zm19 0zm-19 0zm-1 1zm20 0zm0 0zm-5 0zm-2 0zm-4 0zm5 0h-1 1zm-35 0zm19 0h-1 1zm3 0zm-6 0zm-26 0zm34 0zm-34 0zm34 0zm-7 0a1 1 0 0 0-1 1h1a2 2 0 0 1-1 0 1 1 0 0 1 1-1zm3 0v1a1 1 0 0 1 0-1zm3 0zm-5 1zm-28 0zm30 0zm14 0zm-16 0zm-17 0zm64 0v2-2zm-74 0zm32 0zm-22 0zm17 0zm11 0a10 10 0 0 1 0 1 10 10 0 0 1 0-1zm-13 0zm-2 0zm13 0a7 7 0 0 0 0 2h-1 1a7 7 0 0 1 0-2zm-4 0zm-5 0zm20 0a1 1 42 0 0 0 1 1 1 42 0 0 1 0 1 1 42 0 1-1 0 1 1 42 0 1 0-1zm-21 0zm1 1h-1 1zm-2 0zm0 0a13 13 0 0 0-1 1 13 13 0 0 1 1-1zm5 0zm13 0zm-17 0zm5 0zm-5 0zm3 0zm-5 0zm2 0zm6 0zm-4 0zm6 0zm-2 0a2 2 0 0 0-1 1 2 2 0 0 1 1-1zm-6 0zm5 0a6 6 0 0 1 0 1 1 1 0 0 1-1 1 1 1 0 0 0 1-1 6 6 0 0 0 0-1zm-1 0zm-8 0zm-12 0zm24 1zm-24 0zm17 0zm-1 0a2 2 0 0 0-1 0 2 2 0 0 0 1 0zm-3 0zm19 0zm-14 0h-1 1zm14 0zm-19 0zm19 0zm0 0a1 1 42 0 0 0 1 1 1 42 0 1 0-1zm-42 0zm31 0zm-21 0-1 1 1-1zm13 0a1 1 0 0 1-1 1 1 1 0 0 0 1-1zm19 0zm-15 1zm-18 0zm33 0zm-32 0zm21 0zm2 0zm-11 0zm20 0zm-12 0zm34 0zm-22 0zm-9 0zm9 0zm-31 0v1-1zm15 0v1-1zm-15 1zm19 0zm3 0zm-5 0zm-26 0zm33 0zm-4 0zm0 0a4 4 0 0 0-1 0h1zm4 0zm-11 0zm4 0zm-2 0zm11 0zm-7 0zm-20 0v1-1zm13 1zm6 0zm3 0v2c1 1 0 1 0 0v5l1 1a11 11 0 0 1 0-3v-4a1 1 0 0 0-1 0v-1l2 1h1v1l1 5v3a5 5 0 0 1-1 2l-1 1a3 3 0 0 1-2 0l-1-1-1-2a5 5 0 0 1-1-2v-5a4 4 0 0 1 0-1v-1l3-1zm-5 0zm0 1zm-25 0zm38 0a2 2 0 0 0-1 0l-2 1h4v-1h-1zm-28 0zm-1 3Zm18 0zm-20 0zm27 0zm1 1zm-37 0zm73 2-1 2 1-2zm-44 0h-1 1zm-18 0zm47 2-1 1 1-1zm-44 0zm-22 1zm-2 0zm25 0zm3 1zm38 0a23 23 0 0 1-3 2l-2 1a31 31 0 0 0 2-1 23 23 0 0 0 3-2zm-20 0zm34 2zm-57 0zm58 0zm-50 1zm50 0h-1v1-1h1zm-57 1a8 8 0 0 1 1 1 8 8 0 0 0-1-1zm42 0-2 2a17 17 0 0 1-2 1 16 16 0 0 0 4-3zm-43 0c1 0 0 0 0 0l-1 3a3 3 0 0 1-1 2 1 1 0 0 1-1 0v-1l1-1 1-3h1zm11 0zm46 1-1 1h1-1l1-1zm-18 0zm-5 0zm-31 1zm-14 0a3 3 0 0 0-1 2h-1a4 4 0 0 1-1 3v-2l1-2 2-1zm29 1zm3 0h2a255 255 0 0 0-2 0zm35 0a3 3 0 0 0-1 1l1-1zM7 95v1-1zm23 0v1a10 10 0 0 0-1 1 8 8 0 0 1-1 1 33 33 0 0 0-1 3h-1v-1l4-4v-1zm81 1zm-24 0a35 35 0 0 1-5 1h1l-1 1v3h-2v-1a1 1 0 0 1 1 0v-1a5 5 0 0 0 1-2 35 35 0 0 0 5-1zm23 0zm-14 1h1v1h-1v-1zm-29 1h1-1zm29 0h1v1a22 22 0 0 1-1 3 1 1 35 0 1 0-1v-1a4 4 0 0 1 0-2zm-27 0zm1 1zm23 0zm-15 1v-1zm1 0h1-1zm1 0zm-70 0zm98 0a2 2 0 0 1-1 0 3 3 0 0 0 0 1v-1a2 2 0 0 0 1 0zm-48 1h1a31 31 0 0 0-1 3l-3 3 1-1v-1a23 23 0 0 1 2-4zm11 1a16 16 0 0 1 0 2l-1 1a6 6 0 0 1 0 1l-1 1a2 2 0 0 1-1 1v-1a7 7 0 0 1 1-3l1-1 1-1zm20 0a33 33 0 0 1-3 2 10 10 0 0 1 0 1v1a7 7 0 0 1-1 3h-1v-2l1-1v-2l1-1v1l3-2zm-79 1a1 1 0 0 1 1 0 1 1 0 0 0-1 0zm3 0v1-1zm32 1a3 3 0 0 1-1 2 6 6 0 0 0-1 1v1l-1 1v-2l2-3h1zm39 1a2 2 0 0 0-1 1l1-1zm-72 0zm7 1h1-1zm1 1zm56 1v1a16 16 0 0 1-1 1v2a4 4 0 0 1-2 1v-1l2-4a3 3 0 0 1 1 0zm4 0zm-65 0zm17 0v1a9 9 0 0 1-2 3l-1 1c0 1 0 1 0 0l1-3 2-1a1 1 0 0 1 0-1zm-17 1zm83 1zm-73 0 1 1h1-1a9 9 0 0 0-1-1zm-6 1 4 2a95 95 0 0 0 4 2 95 95 0 0 1-4-2 88 88 0 0 1-4-2zm78 0zm-2 0a15 15 0 0 0-1 2l1-2zm-67 1zm-10 0zm13 1zm40 0zm-17 0v1a1 1 0 0 1 0 1 1 1 0 0 0-1 0 10 10 0 0 1-1 3h-1c0 1 0 1 0 0l2-3v-1l1-1zm-21 0zm9 0h1v1a2 2 0 0 1 0-1h-1zm2 1h2a9 9 0 0 1 3 0h1a3 3 0 0 1-1 0 9 9 0 0 0-3 0 52 52 0 0 1-2 0zm-3 0zm-5 0zm16 0zm27 0v1l-1 1v3a3 3 0 0 1-1 0 7 7 0 0 1 0-2l1-2v-1h1zm-16 0 1 1a114 114 0 0 1-2 4l-1-1v-1l2-2v-1zm1 1zm-22 0v1l-1 1a56 56 0 0 0-1 2h-1a16 16 0 0 1 3-4zm-19 0zm64 0zm2 1zm-3 0zm0 2zm-56 0zm52 2zm-45 3zm5 1zm10 1a6 6 0 0 0-1 0h1z" fill="#000000" />
</svg>
