<svg id="Layer_1" data-name="Layer 1" xmlns="http://www.w3.org/2000/svg" viewBox="0 0 500 500"><defs><style>.cls-1{fill:#0a0a0a;}.cls-2{fill:#fff;}</style></defs><rect class="cls-1" width="500" height="500" rx="21.55"/><path class="cls-2" d="M69.74,300.61V216.47h6c15,0,30.07-.25,45.1.05,8.38.17,14.26-3.19,18.89-10,6.8-10,14-19.66,21.68-30.41H69.85V129a24.42,24.42,0,0,1,3.63-.52q63.26,0,126.5,0c9.69,0,19,1.23,26.51,8.41,9.31,8.87,10.31,19.61,2.74,30-18.82,25.74-37.75,51.4-56.15,77.43-6.89,9.74-15.42,14.7-27.27,14.32-5.82-.19-11.66,0-19.26,0L234.46,370.89a33.72,33.72,0,0,1-4.05.57c-19.62,0-39.24.17-58.85-.08a11.71,11.71,0,0,1-7.43-3.23q-28.31-28.83-56.2-58.09c-6.22-6.55-13.28-10-22.39-9.51C80.33,300.86,75.08,300.61,69.74,300.61Z"/><path class="cls-2" d="M381.64,371.08V270.15H265.17c2.05-3.22,3.58-5.81,5.3-8.26,8.63-12.29,17.21-24.63,26.12-36.72,1.2-1.63,4.18-2.72,6.35-2.73,24-.17,48-.08,72-.06h6.64V128.87h48.64V371.08Z"/><path class="cls-2" d="M320.21,371.53c-20.16,0-39,.06-57.91-.1a6.63,6.63,0,0,1-4.44-2.35q-32.36-41-64.5-82.19c-.89-1.14-1.7-2.35-2.87-4,5.84-8.29,11.74-16.63,17.62-25q44.14-62.71,88.4-125.36c1.35-1.9,4.19-3.86,6.37-3.9,17.55-.31,35.1-.17,53.81-.17-4.12,6.08-7.71,11.5-11.42,16.83q-45.51,65.43-91.14,130.8c-2.81,4-3.11,6.66.2,10.82,21.19,26.69,42,53.66,63,80.55C318.05,368.44,318.73,369.46,320.21,371.53Z"/></svg>